<?xml version="1.0" encoding="utf-8"?><!DOCTYPE svg PUBLIC "-//W3C//DTD SVG 1.1//EN" "http://www.w3.org/Graphics/SVG/1.1/DTD/svg11.dtd"><svg version="1.1" xmlns="http://www.w3.org/2000/svg" xmlns:xlink="http://www.w3.org/1999/xlink" width="32.00003480911255" height="28" viewBox="0 0 32.00003480911255 28" data-code="61876" data-tags="behance"><g fill="#444" transform="scale(0.02734375 0.02734375)"><path d="M1056 193.714h-292v70.857h292v-70.857zM912 437.143q-51.429 0-83.429 30t-35.429 81.429h233.143q-10.286-111.429-114.286-111.429zM921.143 771.429q36 0 69.714-18.286t43.429-49.714h126.286q-57.143 175.429-244 175.429-122.286 0-194.571-75.429t-72.286-198.286q0-118.857 74.571-197.429t192.286-78.571q78.857 0 137.429 38.857t87.429 102.286 28.857 141.714q0 9.714-1.143 26.857h-376q0 63.429 32.857 98t95.143 34.571zM158.286 742.857h169.143q117.143 0 117.143-95.429 0-102.857-113.714-102.857h-172.571v198.286zM158.286 436h160.571q44.571 0 70.571-20.857t26-64.857q0-82.286-108.571-82.286h-148.571v168zM0 145.143h339.429q49.714 0 88.571 8t72.286 27.143 51.429 55.143 18 88q0 103.429-98.286 150.286 65.143 18.286 98.286 65.714t33.143 116.571q0 42.857-14 78t-37.714 59.143-56.286 40.571-69.143 24-76.571 7.429h-349.143v-720z" /></g></svg>