<?xml version="1.0" encoding="utf-8"?><!DOCTYPE svg PUBLIC "-//W3C//DTD SVG 1.1//EN" "http://www.w3.org/Graphics/SVG/1.1/DTD/svg11.dtd"><svg version="1.1" xmlns="http://www.w3.org/2000/svg" xmlns:xlink="http://www.w3.org/1999/xlink" width="23.99999238053951" height="28" viewBox="0 0 23.99999238053951 28" data-code="61821" data-tags="dribbble"><g fill="#444" transform="scale(0.02734375 0.02734375)"><path d="M585.143 857.143q-24-137.714-80-284.571h-1.143l-1.143 0.571q-9.143 3.429-24.571 9.429t-57.714 28-78.286 46.857-74.857 65.429-58.857 84.571l-8.571-6.286q105.143 85.714 238.857 85.714 75.429 0 146.286-29.714zM479.429 510.286q-12-28-30.286-63.429-177.714 53.143-384.571 53.143-0.571 4-0.571 12 0 70.857 25.143 135.143t70.857 115.143q28.571-50.857 70.571-95.143t81.429-71.143 74.571-46.286 56.857-27.429l21.143-7.429q2.286-0.571 7.429-2t7.429-2.571zM418.286 389.143q-68.571-121.714-139.429-216-78.857 37.143-133.714 106.286t-73.143 155.429q172.571 0 346.286-45.714zM809.143 571.429q-120-34.286-233.714-16.571 49.714 136.571 73.143 268 63.429-42.857 105.714-108.286t54.857-143.143zM349.143 148q-0.571 0-1.143 0.571 0.571-0.571 1.143-0.571zM686.286 230.857q-105.714-93.714-247.429-93.714-43.429 0-88.571 10.857 74.857 97.143 140.571 218.286 39.429-14.857 74.286-34.571t55.143-35.143 37.429-32.571 21.429-23.143zM813.714 508q-1.714-132.571-85.143-234.286l-0.571 0.571q-5.143 6.857-10.857 14t-24.857 25.429-40.571 34.571-57.143 37.143-75.143 36.857q14.286 30.286 25.143 54.286 1.143 3.429 3.714 10t4.286 9.429q20.571-2.857 42.571-4t42-1.143 39.429 0.857 36.571 2.286 32.286 3.143 27.429 3.714 20.857 3.429 14.286 2.571zM877.714 512q0 119.429-58.857 220.286t-159.714 159.714-220.286 58.857-220.286-58.857-159.714-159.714-58.857-220.286 58.857-220.286 159.714-159.714 220.286-58.857 220.286 58.857 159.714 159.714 58.857 220.286z" /></g></svg>