<?xml version="1.0"?>
<!--Icons from directory ""-->
<svg xmlns="http://www.w3.org/2000/svg" width="32" height="188" viewBox="0 0 32 188"><svg xmlns:xlink="http://www.w3.org/1999/xlink" data-code="61876" height="28" width="32" version="1.1" viewBox="0 0 32.00003480911255 28" data-tags="behance" id="icon-behance" y="0"><g transform="scale(.027344)" fill="#444"><path d="m1056 193.71h-292v70.857h292v-70.857zm-144 243.43q-51.429 0-83.429 30t-35.429 81.429h233.14q-10.286-111.43-114.29-111.43zm9.14 334.29q36 0 69.714-18.286t43.429-49.714h126.29q-57.143 175.43-244 175.43-122.29 0-194.57-75.429t-72.286-198.29q0-118.86 74.571-197.43t192.29-78.571q78.857 0 137.43 38.857t87.429 102.29 28.857 141.71q0 9.714-1.143 26.857h-376q0 63.429 32.857 98t95.143 34.571zm-762.85-28.57h169.14q117.14 0 117.14-95.429 0-102.86-113.71-102.86h-172.57v198.29zm0-306.86h160.57q44.571 0 70.571-20.857t26-64.857q0-82.286-108.57-82.286h-148.57v168zm-158.29-290.86h339.43q49.714 0 88.571 8t72.286 27.143 51.429 55.143 18 88q0 103.43-98.286 150.29 65.143 18.286 98.286 65.714t33.143 116.57q0 42.857-14 78t-37.714 59.143-56.286 40.571-69.143 24-76.571 7.429h-349.14v-720z"/></g></svg><svg xmlns:xlink="http://www.w3.org/1999/xlink" data-code="61821" height="28" width="24" version="1.1" viewBox="0 0 23.99999238053951 28" data-tags="dribbble" id="icon-dribble" y="28"><g transform="scale(.027344)" fill="#444"><path d="m585.14 857.14q-24-137.71-80-284.57h-1.143l-1.143 0.571q-9.143 3.429-24.571 9.429t-57.714 28-78.286 46.857-74.857 65.429-58.857 84.571l-8.571-6.286q105.14 85.714 238.86 85.714 75.429 0 146.29-29.714zm-105.71-346.85q-12-28-30.286-63.429-177.71 53.143-384.57 53.143-0.571 4-0.571 12 0 70.857 25.143 135.14t70.857 115.14q28.571-50.857 70.571-95.143t81.429-71.143 74.571-46.286 56.857-27.429l21.143-7.429q2.286-0.571 7.429-2t7.429-2.571zm-61.14-121.15q-68.571-121.71-139.43-216-78.857 37.143-133.71 106.29t-73.143 155.43q172.57 0 346.29-45.714zm390.85 182.29q-120-34.286-233.71-16.571 49.714 136.57 73.143 268 63.429-42.857 105.71-108.29t54.857-143.14zm-460-423.43q-0.571 0-1.143 0.571 0.571-0.571 1.143-0.571zm337.15 82.86q-105.71-93.714-247.43-93.714-43.429 0-88.571 10.857 74.857 97.143 140.57 218.29 39.429-14.857 74.286-34.571t55.143-35.143 37.429-32.571 21.429-23.143zm127.42 277.14q-1.714-132.57-85.143-234.29l-0.571 0.571q-5.143 6.857-10.857 14t-24.857 25.429-40.571 34.571-57.143 37.143-75.143 36.857q14.286 30.286 25.143 54.286 1.143 3.429 3.714 10t4.286 9.429q20.571-2.857 42.571-4t42-1.143 39.429 0.857 36.571 2.286 32.286 3.143 27.429 3.714 20.857 3.429 14.286 2.571zm64 4q0 119.43-58.857 220.29t-159.71 159.71-220.29 58.857-220.29-58.857-159.71-159.71-58.857-220.29 58.857-220.29 159.71-159.71 220.29-58.857 220.29 58.857 159.71 159.71 58.857 220.29z"/></g></svg><svg xmlns:xlink="http://www.w3.org/1999/xlink" data-code="61594" height="28" width="16" version="1.1" viewBox="0 0 16.468785643577576 28" data-tags="facebook,facebook-f" id="icon-facebook" y="56"><g transform="scale(.027344)" fill="#444"><path d="m548 6.857v150.86h-89.714q-49.143 0-66.286 20.571t-17.143 61.714v108h167.43l-22.286 169.14h-145.14v433.71h-174.86v-433.71h-145.71v-169.14h145.71v-124.57q0-106.29 59.429-164.86t158.29-58.571q84 0 130.29 6.857z"/></g></svg><svg xmlns:xlink="http://www.w3.org/1999/xlink" height="20" width="20" version="1.1" viewBox="0 0 20 20" data-tags="google+" id="icon-googleplus" y="84"><g transform="scale(.019531)" fill="#444"><path d="m101.84 286.16c0 76.493 25.549 131.69 75.878 164.1 41.267 26.624 89.088 30.618 113.97 30.618 6.042 0 10.906-0.307 14.285-0.512 0 0-7.885 51.405 30.208 102.2h-1.741c-65.997 0-281.24 13.773-281.24 190.82 0 180.02 197.68 189.18 237.36 189.18 3.123 0 4.966-0.102 4.966-0.102 0.41 0 3.226 0.102 8.09 0.102 25.446 0 91.238-3.174 152.32-32.922 79.258-38.4 119.45-105.42 119.45-198.91 0-90.317-61.235-144.08-105.93-183.4-27.29-24.013-50.893-44.698-50.893-64.819 0-20.48 17.254-35.891 39.014-55.398 35.277-31.488 68.557-76.39 68.557-161.28 0-74.598-9.677-124.72-69.325-156.52 6.195-3.174 28.211-5.478 39.066-7.014 32.307-4.403 79.565-9.421 79.565-35.789v-5.069h-235.47c-2.355 0.102-238.13 8.806-238.13 224.72zm380.11 461.46c4.506 71.987-57.088 125.08-149.61 131.79-93.952 6.912-171.26-35.379-175.77-107.32-2.202-34.611 13.005-68.403 42.752-95.386 30.157-27.29 71.578-44.186 116.63-47.514 5.325-0.307 10.598-0.614 15.872-0.614 86.989 0.051 145.87 51.149 150.12 119.04zm-61.5-510.77c23.091 81.306-11.776 166.2-67.379 181.91-6.4 1.792-12.954 2.662-19.661 2.662-50.893 0-101.32-51.507-120.06-122.52-10.445-39.731-9.574-74.65 2.406-108.13 11.725-33.024 32.922-55.194 59.546-62.72 6.4-1.792 13.005-2.714 19.712-2.714 61.44 0 100.97 25.498 125.44 111.51zm398.75 172.75v-153.6h-102.4v153.6h-153.6v102.4h153.6v153.6h102.4v-153.6h153.6v-102.4h-153.6z"/></g></svg><svg xmlns:xlink="http://www.w3.org/1999/xlink" data-code="61665" height="28" width="24" version="1.1" viewBox="0 0 24.00000246365653 28" data-tags="linkedin" id="icon-instagram" y="104"><g transform="scale(.027344)" fill="#444"><path d="m199.43 357.14v566.29h-188.57v-566.29h188.57zm12-174.85q0.571 41.714-28.857 69.714t-77.429 28h-1.143q-46.857 0-75.429-28t-28.571-69.714q0-42.286 29.429-70t76.857-27.714 76 27.714 29.143 70zm666.28 416.57v324.57h-188v-302.86q0-60-23.143-94t-72.286-34q-36 0-60.286 19.714t-36.286 48.857q-6.286 17.143-6.286 46.286v316h-188q1.143-228 1.143-369.71t-0.571-169.14l-0.571-27.429h188v82.286h-1.143q11.429-18.286 23.429-32t32.286-29.714 49.714-24.857 65.429-8.857q97.714 0 157.14 64.857t59.429 190z"/></g></svg><svg xmlns:xlink="http://www.w3.org/1999/xlink" data-code="61822" height="28" width="24" version="1.1" viewBox="0 0 24.000020891427994 28" data-tags="skype" id="icon-skype" y="132"><g transform="scale(.027344)" fill="#444"><path d="m670.29 607.43q0-28.571-11.143-52.286t-27.714-39.143-41.714-28-47.143-19.429-50-13.143l-59.429-13.714q-17.143-4-25.143-6t-20-6.571-17.143-9.143-9.429-12-4.286-17.143q0-44 82.286-44 24.571 0 44 6.857t30.857 16.286 21.714 19.143 22.857 16.571 27.429 6.857q26.857 0 43.143-18.286t16.286-44q0-31.429-32-56.857t-81.143-38.571-104-13.143q-38.857 0-75.429 8.857t-68.286 26.857-50.857 49.714-19.143 73.429q0 34.857 10.857 60.857t32 43.143 45.714 27.714 58.857 18.571l83.429 20.571q51.429 12.571 64 20.571 18.286 11.429 18.286 34.286 0 22.286-22.857 36.857t-60 14.571q-29.143 0-52.286-9.143t-37.143-22-26-25.714-26.286-22-30.857-9.143q-28.571 0-43.143 17.143t-14.571 42.857q0 52.571 69.714 90t166.29 37.429q41.714 0 80-10.571t70-30.571 50.571-53.429 18.857-75.143zm207.42 124q0 90.857-64.286 155.14t-155.14 64.286q-74.286 0-133.71-45.714-44 9.143-85.714 9.143-81.714 0-156.29-31.714t-128.57-85.714-85.714-128.57-31.714-156.29q0-41.714 9.143-85.714-45.714-59.429-45.714-133.71 0-90.857 64.286-155.14t155.14-64.286q74.286 0 133.71 45.714 44-9.143 85.714-9.143 81.714 0 156.29 31.714t128.57 85.714 85.714 128.57 31.714 156.29q0 41.714-9.143 85.714 45.714 59.429 45.714 133.71z"/></g></svg><svg xmlns:xlink="http://www.w3.org/1999/xlink" data-code="61593" height="28" width="26" version="1.1" viewBox="0 0 25.999969244003296 28" data-tags="twitter" id="icon-twitter" y="160"><g transform="scale(.027344)" fill="#444"><path d="m925.71 233.14q-38.286 56-92.571 95.429 0.571 8 0.571 24 0 74.286-21.714 148.29t-66 142-105.43 120.29-147.43 83.429-184.57 31.143q-154.86 0-283.43-82.857 20 2.286 44.571 2.286 128.57 0 229.14-78.857-60-1.143-107.43-36.857t-65.143-91.143q18.857 2.857 34.857 2.857 24.571 0 48.571-6.286-64-13.143-106-63.714t-42-117.43v-2.286q38.857 21.714 83.429 23.429-37.714-25.143-60-65.714t-22.286-88q0-50.286 25.143-93.143 69.143 85.143 168.29 136.29t212.29 56.857q-4.571-21.714-4.571-42.286 0-76.571 54-130.57t130.57-54q80 0 134.86 58.286 62.286-12 117.14-44.571-21.143 65.714-81.143 101.71 53.143-5.714 106.29-28.571z"/></g></svg></svg>
