<?xml version="1.0" encoding="utf-8"?><!DOCTYPE svg PUBLIC "-//W3C//DTD SVG 1.1//EN" "http://www.w3.org/Graphics/SVG/1.1/DTD/svg11.dtd"><svg version="1.1" xmlns="http://www.w3.org/2000/svg" xmlns:xlink="http://www.w3.org/1999/xlink" width="24.000020891427994" height="28" viewBox="0 0 24.000020891427994 28" data-code="61822" data-tags="skype"><g fill="#444" transform="scale(0.02734375 0.02734375)"><path d="M670.286 607.429q0-28.571-11.143-52.286t-27.714-39.143-41.714-28-47.143-19.429-50-13.143l-59.429-13.714q-17.143-4-25.143-6t-20-6.571-17.143-9.143-9.429-12-4.286-17.143q0-44 82.286-44 24.571 0 44 6.857t30.857 16.286 21.714 19.143 22.857 16.571 27.429 6.857q26.857 0 43.143-18.286t16.286-44q0-31.429-32-56.857t-81.143-38.571-104-13.143q-38.857 0-75.429 8.857t-68.286 26.857-50.857 49.714-19.143 73.429q0 34.857 10.857 60.857t32 43.143 45.714 27.714 58.857 18.571l83.429 20.571q51.429 12.571 64 20.571 18.286 11.429 18.286 34.286 0 22.286-22.857 36.857t-60 14.571q-29.143 0-52.286-9.143t-37.143-22-26-25.714-26.286-22-30.857-9.143q-28.571 0-43.143 17.143t-14.571 42.857q0 52.571 69.714 90t166.286 37.429q41.714 0 80-10.571t70-30.571 50.571-53.429 18.857-75.143zM877.714 731.429q0 90.857-64.286 155.143t-155.143 64.286q-74.286 0-133.714-45.714-44 9.143-85.714 9.143-81.714 0-156.286-31.714t-128.571-85.714-85.714-128.571-31.714-156.286q0-41.714 9.143-85.714-45.714-59.429-45.714-133.714 0-90.857 64.286-155.143t155.143-64.286q74.286 0 133.714 45.714 44-9.143 85.714-9.143 81.714 0 156.286 31.714t128.571 85.714 85.714 128.571 31.714 156.286q0 41.714-9.143 85.714 45.714 59.429 45.714 133.714z" /></g></svg>